<svg xmlns="http://www.w3.org/2000/svg" xmlns:xlink="http://www.w3.org/1999/xlink" width="1366" height="700" viewBox="0 0 1366 700">
  <defs>
    <clipPath id="clip-bg_brazil">
      <rect width="1366" height="700"/>
    </clipPath>
  </defs>
  <g id="bg_brazil" clip-path="url(#clip-bg_brazil)">
    <rect width="1366" height="700" fill="#fff"/>
    <g id="Grupo_1" data-name="Grupo 1">
      <path id="Caminho_1" data-name="Caminho 1" d="M5.2,21.385,1512.225-27.437,1501.075,292.1-5.946,340.92Z" transform="matrix(0.934, -0.358, 0.358, 0.934, -306.148, 307.273)" fill="#26a707"/>
      <path id="Caminho_2" data-name="Caminho 2" d="M5.885,21.373,1292.274-23.446l-13.585,420.08L-7.7,441.453Z" transform="matrix(0.934, -0.358, 0.358, 0.934, -468.274, -77.856)" fill="#d8ca0b"/>
      <g id="Caminho_3" data-name="Caminho 3" transform="translate(-310.568 -54.151) rotate(-34)" fill="#1b29a7">
        <path d="M 243.6955413818359 298.2605895996094 C 219.9496917724609 298.2605895996094 196.6584014892578 296.5741577148438 174.4686126708984 293.2481689453125 C 152.8569030761719 290.0087280273438 132.3031158447266 285.2186584472656 113.3781890869141 279.0108947753906 C 94.68775939941406 272.8800964355469 77.65861511230469 265.3918762207031 62.76383209228516 256.7542419433594 C 47.82661819458008 248.0921020507813 35.10826110839844 238.3153839111328 24.96204566955566 227.6957397460938 C 15.26318836212158 217.5442352294922 7.931046009063721 206.6303100585938 3.169402837753296 195.2570953369141 C -1.729025602340698 183.5571746826172 -3.925025701522827 171.3177337646484 -3.357525587081909 158.8787384033203 C -2.888025522232056 148.5873870849609 -0.5225256085395813 138.2108154296875 3.67318868637085 128.0373077392578 C 7.766117095947266 118.1130218505859 13.64904594421387 108.2609558105469 21.15840339660645 98.75473785400391 C 28.53790283203125 89.41302490234375 37.56118774414063 80.31124114990234 47.97761535644531 71.70223999023438 C 58.30075836181641 63.17023849487305 70.08111572265625 55.04824066162109 82.9913330078125 47.56180953979492 C 95.90568542480469 40.07295227050781 110.0565490722656 33.15873718261719 125.0507583618164 27.01116752624512 C 140.1914672851563 20.80359649658203 156.3254089355469 15.32352447509766 173.0043334960938 10.72323894500732 C 189.9932556152344 6.037453174591064 207.7227630615234 2.21688175201416 225.7004089355469 -0.6323325037956238 C 244.1476135253906 -3.556046724319458 263.0853271484375 -5.492475509643555 281.987548828125 -6.387832641601563 C 290.1039123535156 -6.772261142730713 298.2886047363281 -6.967189788818359 306.3143920898438 -6.967189788818359 C 330.0602722167969 -6.967189788818359 353.3515319824219 -5.280761241912842 375.5413208007813 -1.954761147499084 C 397.1530456542969 1.284667491912842 417.7068176269531 6.0747389793396 436.6318359375 12.28252506256104 C 455.322265625 18.41331100463867 472.351318359375 25.90152549743652 487.2461242675781 34.53916931152344 C 502.1833190917969 43.20130920410156 514.9016723632813 52.97802352905273 525.0479125976563 63.5976676940918 C 534.7467651367188 73.74909973144531 542.078857421875 84.66302490234375 546.840576171875 96.03623962402344 C 551.7389526367188 107.7361679077148 553.9348754882813 119.9755935668945 553.367431640625 132.4145965576172 C 552.8978881835938 142.7059478759766 550.532470703125 153.08251953125 546.3367309570313 163.2560272216797 C 542.2437744140625 173.1803131103516 536.3609008789063 183.0323791503906 528.8515014648438 192.5385894775391 C 521.4720458984375 201.8803100585938 512.44873046875 210.9821014404297 502.0323181152344 219.5910949707031 C 491.7091064453125 228.1230926513672 479.9288330078125 236.2451629638672 467.0186157226563 243.7315979003906 C 454.1041870117188 251.220458984375 439.9533996582031 258.1346740722656 424.9591979980469 264.2821655273438 C 409.8183898925781 270.4898071289063 393.6844787597656 275.9698791503906 377.0055541992188 280.5701599121094 C 360.0166320800781 285.2559509277344 342.287109375 289.0765380859375 324.3094787597656 291.9257507324219 C 305.8622741699219 294.8494567871094 286.924560546875 296.785888671875 268.0223388671875 297.6812438964844 C 259.9059753417969 298.065673828125 251.7213287353516 298.2605895996094 243.6955413818359 298.2605895996094 Z" stroke="none"/>
        <path d="M 306.3143310546875 -6.467254638671875 C 298.2962036132813 -6.467254638671875 290.1194763183594 -6.272552490234375 282.0111999511719 -5.88848876953125 C 263.1272583007813 -4.993988037109375 244.2078247070313 -3.059417724609375 225.7786254882813 -0.1385498046875 C 207.8193969726563 2.707733154296875 190.1082458496094 6.524383544921875 173.1372680664063 11.20516967773438 C 156.4775390625 15.8001708984375 140.3627014160156 21.27374267578125 125.2404174804688 27.47372436523438 C 110.2671813964844 33.6126708984375 96.13690185546875 40.51681518554688 83.24212646484375 47.99430847167969 C 70.35568237304688 55.46694946289063 58.59811401367188 63.57308959960938 48.29611206054688 72.08760070800781 C 37.9068603515625 80.67424011230469 28.90838623046875 89.75059509277344 21.55078125 99.06466674804688 C 14.070068359375 108.5345306396484 8.210693359375 118.3464508056641 4.1353759765625 128.2279510498047 C -0.03826904296875 138.3478851318359 -2.39117431640625 148.6679534912109 -2.85809326171875 158.9015197753906 C -3.42218017578125 171.2660217285156 -1.239013671875 183.4328002929688 3.630615234375 195.0639495849609 C 8.3685302734375 206.3805847167969 15.6671142578125 217.2432403564453 25.32354736328125 227.3502349853516 C 35.4371337890625 237.9357299804688 48.11825561523438 247.6831665039063 63.01461791992188 256.3216552734375 C 77.87939453125 264.9418029785156 94.87655639648438 272.4157409667969 113.5339660644531 278.5357360839844 C 132.4324035644531 284.7347412109375 152.9586791992188 289.518310546875 174.5427551269531 292.7536010742188 C 196.7080383300781 296.0759582519531 219.9743957519531 297.7605285644531 243.695556640625 297.7605285644531 C 251.7136840820313 297.7605285644531 259.8904113769531 297.5657958984375 267.9986877441406 297.1817321777344 C 286.8826293945313 296.2872314453125 305.8020629882813 294.3526611328125 324.2312622070313 291.431884765625 C 342.1904907226563 288.5855102539063 359.901611328125 284.7688903808594 376.8726196289063 280.0881042480469 C 393.5323486328125 275.4931030273438 409.6471862792969 270.0195922851563 424.7694702148438 263.8195190429688 C 439.7427673339844 257.6806030273438 453.8729858398438 250.7765197753906 466.7677612304688 243.2990264892578 C 479.6542663574219 235.8263854980469 491.4117431640625 227.7201690673828 501.7137451171875 219.2056579589844 C 512.10302734375 210.6190948486328 521.1015014648438 201.5427398681641 528.4591064453125 192.2286682128906 C 535.9398193359375 182.7588195800781 541.7991943359375 172.9468841552734 545.8744506835938 163.0653839111328 C 550.048095703125 152.9454498291016 552.4010620117188 142.6253814697266 552.8679809570313 132.3918151855469 C 553.4320678710938 120.0273132324219 551.2489624023438 107.8605194091797 546.3793334960938 96.22930908203125 C 541.641357421875 84.91273498535156 534.3428344726563 74.05009460449219 524.6863403320313 63.94302368164063 C 514.57275390625 53.35752868652344 501.8916931152344 43.61016845703125 486.9953308105469 34.9716796875 C 472.1305541992188 26.3514404296875 455.1333923339844 18.87759399414063 436.4759826660156 12.75759887695313 C 417.5775451660156 6.55853271484375 397.05126953125 1.77496337890625 375.4671936035156 -1.4603271484375 C 353.3018188476563 -4.782684326171875 330.0354614257813 -6.467254638671875 306.3143310546875 -6.467254638671875 M 306.3143310546875 -7.46728515625 C 448.6121826171875 -7.46728515625 557.5054931640625 52.68397521972656 553.8668823242188 132.4373779296875 C 550.0236206054688 216.6795959472656 422.0571899414063 290.8853149414063 268.0459594726563 298.1806030273438 C 259.8396911621094 298.5693054199219 251.7044067382813 298.7605590820313 243.6955261230469 298.7605590820313 C 101.3977355957031 298.7605590820313 -7.49554443359375 238.6093597412109 -3.8570556640625 158.85595703125 C -0.013671875 74.61373901367188 127.9526977539063 0.407958984375 281.9638977050781 -6.8873291015625 C 290.1701965332031 -7.27606201171875 298.3054504394531 -7.46728515625 306.3143310546875 -7.46728515625 Z" stroke="none" fill="#707070"/>
      </g>
    </g>
  </g>
</svg>
