<svg xmlns="http://www.w3.org/2000/svg" xmlns:xlink="http://www.w3.org/1999/xlink" width="950" height="600" viewBox="0 0 950 600">
  <defs>
    <clipPath id="clip-SPRK_default_preset_name_custom_3">
      <rect width="950" height="600"/>
    </clipPath>
  </defs>
  <g id="SPRK_default_preset_name_custom_3" data-name="SPRK_default_preset_name_custom – 3" clip-path="url(#clip-SPRK_default_preset_name_custom_3)">
    <rect width="950" height="600" fill="#fff"/>
    <path id="Subtração_1" data-name="Subtração 1" d="M536.794,336.592c-18.845,0-39.608-.695-61.712-2.064-20.524-1.271-42.706-3.156-65.928-5.6-40.868-4.3-86.086-10.449-134.4-18.27-38.64-6.255-79.332-13.588-120.945-21.8-37.006-7.3-67.889-13.95-87.28-18.243V.5h951V273.756C985.68,280.109,953.2,286.251,921,292.012c-43.241,7.738-85.121,14.626-124.476,20.476-48.261,7.173-93.079,12.831-133.21,16.816-22.605,2.245-44.1,3.994-63.874,5.2-21.206,1.292-41.007,1.991-58.851,2.079C539.319,336.589,538.076,336.592,536.794,336.592Z" transform="translate(-67.03 -1)" fill="#0c326f"/>
  </g>
</svg>
